<svg width="49" height="48" viewBox="0 0 49 48" fill="none" xmlns="http://www.w3.org/2000/svg">
<g id="iconoir:add-user">
<path id="Vector" d="M34.5 20H40.5M40.5 20H46.5M40.5 20V14M40.5 20V26M2.5 40V38C2.5 34.287 3.975 30.726 6.6005 28.1005C9.22601 25.475 12.787 24 16.5 24M16.5 24C20.213 24 23.774 25.475 26.3995 28.1005C29.025 30.726 30.5 34.287 30.5 38V40M16.5 24C18.6217 24 20.6566 23.1571 22.1569 21.6569C23.6571 20.1566 24.5 18.1217 24.5 16C24.5 13.8783 23.6571 11.8434 22.1569 10.3431C20.6566 8.84285 18.6217 8 16.5 8C14.3783 8 12.3434 8.84285 10.8431 10.3431C9.34285 11.8434 8.5 13.8783 8.5 16C8.5 18.1217 9.34285 20.1566 10.8431 21.6569C12.3434 23.1571 14.3783 24 16.5 24Z" stroke="#3B368D" stroke-width="3" stroke-linecap="round" stroke-linejoin="round"/>
</g>
</svg>
