<svg width="16" height="20" viewBox="0 0 16 20" fill="none" xmlns="http://www.w3.org/2000/svg">
<g id="Group">
<path id="Vector" d="M14.1667 10.0003V4.79116C14.1667 4.72538 14.1538 4.66024 14.1286 4.59946C14.1035 4.53869 14.0665 4.48348 14.02 4.43699L11.3967 1.81366C11.303 1.71986 11.1759 1.66711 11.0433 1.66699H1.33333C1.20072 1.66699 1.07354 1.71967 0.979775 1.81344C0.886007 1.90721 0.833328 2.03438 0.833328 2.16699V17.8337C0.833328 17.9663 0.886007 18.0934 0.979775 18.1872C1.07354 18.281 1.20072 18.3337 1.33333 18.3337H6.66666M4.16666 8.33366H10.8333M4.16666 5.00033H7.5M4.16666 11.667H6.66666M12.4617 14.117L13.295 13.2837C13.3818 13.1968 13.4848 13.1279 13.5982 13.081C13.7115 13.034 13.8331 13.0098 13.9558 13.0098C14.0786 13.0098 14.2001 13.034 14.3135 13.081C14.4269 13.1279 14.5299 13.1968 14.6167 13.2837C14.7918 13.4588 14.8901 13.6964 14.8901 13.9441C14.8901 14.1918 14.7918 14.4293 14.6167 14.6045L13.7833 15.4378L12.4617 14.1162L9.96916 16.6087C9.84454 16.7337 9.76283 16.895 9.73583 17.0695L9.5325 18.367L10.83 18.1645C11.0044 18.1375 11.1658 18.0558 11.2908 17.9312L13.7825 15.4378" stroke="#EBEBF4" stroke-width="1.5" stroke-linecap="round" stroke-linejoin="round"/>
<path id="Vector_2" d="M10.8333 1.66699V4.50033C10.8333 4.63293 10.886 4.76011 10.9798 4.85388C11.0735 4.94765 11.2007 5.00033 11.3333 5.00033H14.1667" stroke="#EBEBF4" stroke-width="1.5" stroke-linecap="round" stroke-linejoin="round"/>
</g>
</svg>
