<svg width="20" height="15" viewBox="0 0 20 15" fill="none" xmlns="http://www.w3.org/2000/svg">
<g id="Group">
<path id="Vector" d="M10 9.66821C10.5304 9.66821 11.0391 9.4575 11.4142 9.08243C11.7893 8.70735 12 8.19865 12 7.66821C12 7.13778 11.7893 6.62907 11.4142 6.254C11.0391 5.87893 10.5304 5.66821 10 5.66821C9.46957 5.66821 8.96086 5.87893 8.58579 6.254C8.21071 6.62907 8 7.13778 8 7.66821C8 8.19865 8.21071 8.70735 8.58579 9.08243C8.96086 9.4575 9.46957 9.66821 10 9.66821Z" stroke="#4C4C4C" stroke-width="1.5" stroke-linecap="round" stroke-linejoin="round"/>
<path id="Vector_2" d="M19 7.66821C17.111 10.6592 13.718 13.6682 10 13.6682C6.282 13.6682 2.889 10.6592 1 7.66821C3.299 4.82621 5.992 1.66821 10 1.66821C14.008 1.66821 16.701 4.82621 19 7.66821Z" stroke="#4C4C4C" stroke-width="1.5" stroke-linecap="round" stroke-linejoin="round"/>
</g>
</svg>
